<svg height="16" width="16" xmlns="http://www.w3.org/2000/svg"><text fill="#f79910" font-family="BenguiatGot Bk BT" font-size="31.13627243" transform="scale(.7784068 1.2846753)" x="-2.7061799" xml:space="preserve" y="11.852823"><tspan x="-2.7061799" y="11.852823">~</tspan></text><text x="209.47713" y="31.176472"><tspan x="209.47713" y="31.176472"/></text><path d="m8.0000004 8.9772046c-.65585.0000049-1.150214.0882899-1.5.2257901-.338858.1339859-.500003.3267507-.5.5806052v3.9352041c-.000003.253858.161146.443097.5.580603.349782.133981.84415.193535 1.5.193535.666771 0 1.161142-.06308 1.5-.193535.338848-.133981.499994-.319693.4999996-.580603v-3.9352041c-.0000056-.2609053-.1611516-.4824008-.4999996-.6128611-.338861-.1339748-.833226-.1935293-1.5-.1935342z"/><path d="m29 11.5a1.5 1.5 0 1 1-3 0 1.5 1.5 0 1 1  3 0z" transform="matrix(1.33227 -.05278407 .05278407 1.33227 -29.244442 .1187646)"/><path d="m29 11.5a1.5 1.5 0 1 1-3 0 1.5 1.5 0 1 1  3 0z" transform="matrix(1.33227 -.05278407 .05278407 1.33227 -29.244442 -4.6718058)"/></svg>