<svg height="40" width="232" xmlns="http://www.w3.org/2000/svg"><path d="m147.70759 3.849891c-.76823.00003-1.36459.27346-1.78125.78125-.41667.49482-.625 1.21877-.625 2.15625v3.15625h-.5625c-.96354.00002-1.67448.16669-2.15625.53125-.48177.35158-.71875.90887-.71875 1.625 0 .72918.23698 1.26043.71875 1.625.48177.35158 1.19271.53127 2.15625.53125h.5625v8.3125c0 2.92969.46875 4.93229 1.40625 6 .95051 1.06771 2.66405 1.59375 5.125 1.59375 1.70572 0 2.8854-.16146 3.5625-.5.69009-.35156 1.03124-.94792 1.03125-1.78125-.00001-.71614-.25001-1.21875-.71875-1.53125-.45574-.32552-1.52605-.55208-3.21875-.65625-.97657-.07812-1.59376-.32552-1.90625-.78125-.31251-.46874-.50001-1.55208-.5-3.21875v-7.4375h2.9375c.95051.00002 1.66145-.1979 2.15625-.5625.5078-.37759.74999-.89061.75-1.59375-.00001-.69009-.2422-1.22915-.75-1.59375-.4948-.37758-1.20574-.56248-2.15625-.5625h-2.9375v-3.15625c-.00001-.93748-.20834-1.66143-.625-2.15625-.41667-.50779-.98178-.78122-1.75-.78125zm19.46875 5.71875c-2.90365.00002-5.27084.94794-7.09375 2.875-1.8099 1.9271-2.6875 4.44533-2.6875 7.53125 0 3.07292.8776 5.57292 2.6875 7.5 1.82291 1.92708 4.1901 2.90625 7.09375 2.90625 2.86457 0 5.20832-.9974 7.03125-2.9375 1.8229-1.9401 2.74998-4.42187 2.75-7.46875-.00002-3.04686-.9271-5.52863-2.75-7.46875-1.82293-1.95311-4.16668-2.93748-7.03125-2.9375zm-70.312501.03125c-2.98178.00002-5.40626 1.00783-7.28125 3-1.86198 1.9922-2.781254 4.59116-2.781254 7.78125 0 2.09636.51562 3.90105 1.531254 5.4375 1.02864 1.52344 2.47395 2.67448 4.375 3.46875.59895.26042 1.45572.46354 2.5625.59375 1.10676.11719 2.5078.1875 4.1875.1875 3.007801 0 4.893211-.17448 5.687501-.5.80727-.33854 1.21873-.96354 1.21875-1.875-.00002-.74218-.28387-1.28125-.84375-1.59375-.55992-.32552-1.54429-.46875-2.9375-.46875h-4.156251c-2.08334 0-3.6224-.40104-4.625-1.15625-.98959-.76822-1.50522-1.9427-1.53125-3.53125h10.500001c1.43227.00001 2.37498-.17447 2.84375-.5.46873-.33853.71873-.96353.71875-1.875-.00002-2.65624-.88023-4.81509-2.625-6.46875-1.74481-1.66665-4.031261-2.49998-6.843751-2.5zm21.937501.0625c-1.13282.00002-2.0573.21356-2.8125.65625-.75522.44273-1.34115 1.1146-1.71875 2-.02605-.92446-.20574-1.57811-.53125-1.96875-.31251-.40363-.81511-.59373-1.53125-.59375-.78125.00002-1.39584.237-1.8125.71875-.40365.46877-.59375 1.15106-.59375 2.0625v14.75c0 .9375.1901 1.67969.59375 2.1875.41666.49479 1.03125.75 1.8125.75.78124 0 1.39583-.25521 1.8125-.75.42968-.50781.62499-1.25.625-2.1875v-8.84375c-.00001-1.53645.24999-2.58853.71875-3.1875.46874-.61196 1.29426-.98957 2.53125-1.09375 1.49738-.11717 2.54686-.31769 3.09375-.65625.54686-.33852.81249-.85936.8125-1.5625-.00001-.72915-.26043-1.29686-.78125-1.6875-.50783-.3906-1.25522-.59373-2.21875-.59375zm70.625 0c-1.13282.00002-2.0573.21356-2.8125.65625-.75522.44273-1.34115 1.1146-1.71875 2-.02605-.92446-.20574-1.57811-.53125-1.96875-.31251-.40363-.81511-.59373-1.53125-.59375-.78125.00002-1.39584.237-1.8125.71875-.40365.46877-.59375 1.15106-.59375 2.0625v14.75c0 .9375.1901 1.67969.59375 2.1875.41666.49479 1.03125.75 1.8125.75.78124 0 1.39583-.25521 1.8125-.75.42968-.50781.62499-1.25.625-2.1875v-8.84375c-.00001-1.53645.24999-2.58853.71875-3.1875.46874-.61196 1.29426-.98957 2.53125-1.09375 1.49738-.11717 2.54686-.31769 3.09375-.65625.54686-.33852.81249-.85936.8125-1.5625-.00001-.72915-.26043-1.29686-.78125-1.6875-.50783-.3906-1.25522-.59373-2.21875-.59375zm-153.312505.03125c-.75521.00002-1.35157.27346-1.78125.78125-.41667.49481-.625 1.1771-.625 2.0625v14.75c0 .9375.22135 1.67969.625 2.1875.41666.49479 1 .75 1.78125.75.78124 0 1.36458-.25521 1.78125-.75.42968-.50781.65624-1.25.65625-2.1875v-8.84375c-.00001-1.32811.35416-2.42186 1.03125-3.28125.67707-.87238 1.51562-1.31248 2.53125-1.3125 1.0677.00002 1.83592.34897 2.34375 1 .5078.65106.78124 1.65106.78125 3.03125v9.40625c-.00001.9375.19009 1.67969.59375 2.1875.41665.49479 1.03123.75 1.8125.75.76821 0 1.34634-.25521 1.75-.75.41665-.50781.62498-1.25.625-2.1875v-9.46875c-.00002-1.1328.3229-2.0703 1-2.8125.67706-.75519 1.53383-1.15623 2.5625-1.15625.98956.00002 1.77862.35939 2.3125 1.0625.54685.70314.81247 1.69272.8125 2.96875v9.40625c-.00003.9375.20831 1.67969.625 2.1875.42966.49479 1.03122.75 1.8125.75.78122 0 1.37757-.25521 1.78125-.75.41664-.50781.62497-1.25.625-2.1875v-9.4375c-.00003-2.65624-.61982-4.68227-1.84375-6.0625-1.22399-1.39321-2.99482-2.09373-5.3125-2.09375-1.14586.00002-2.21617.25002-3.21875.71875-1.00262.45575-1.92189 1.15627-2.78125 2.09375-.612-.89842-1.38804-1.61196-2.3125-2.09375-.91147-.48175-1.90626-.71873-3-.71875-.89845.00002-1.76824.19273-2.5625.53125-.79428.32554-1.59115.85158-2.4375 1.59375-.07813-.71613-.29949-1.25519-.625-1.59375-.32553-.35154-.77084-.53123-1.34375-.53125zm-31.7499997.09375c-.78125.00002-1.37761.21356-1.78125.65625-.40365.42971-.625 1.07814-.625 1.9375 0 .84637.15104 1.95835.4375 3.3125.28646 1.34116.70312 2.79949 1.25 4.375.41666 1.22397.89843 2.36199 1.40625 3.46875.52083 1.09376 1.09374 2.15365 1.71875 3.15625.85937 1.35417 1.59895 2.27344 2.25 2.78125.65103.50781 1.3854097.78125 2.2187497.78125.91145 0 1.80988-.4349 2.65625-1.28125.84634-.85937 1.81248-2.32291 2.90625-4.40625 1.10675-2.08333 1.97394-4.21874 2.625-6.40625.65102-2.20051.96873-4.0703.96875-5.59375-.00002-.91144-.18492-1.59373-.5625-2.0625-.3646-.48175-.89064-.71873-1.59375-.71875-1.27606.00002-2.21356 1.51564-2.8125 4.5625-.09116.49481-.15366.88283-.21875 1.15625-.41668 1.9271-.96095 3.69272-1.625 5.28125-.66407 1.57553-1.45834 2.91667-2.34375 4.0625-.87241-1.04166-1.6354297-2.30208-2.3124997-3.8125-.66407-1.52343-1.23178-3.27082-1.6875-5.25-.09115-.40363-.21876-.99478-.375-1.75-.58594-2.83852-1.40625-4.24998-2.5-4.25zm65.1562497 0c-1.28907.00002-2.17448.20315-2.65625.59375-.46875.37762-.6875 1.04689-.6875 2.0625v22.96875c0 .95051.1901 1.66145.59375 2.15625.41666.5078 1.03125.78124 1.8125.78125.76822-.00001 1.36458-.27345 1.78125-.78125.41666-.4948.62499-1.20574.625-2.15625v-5.34375h3.9375c2.92967 0 5.27863-.85156 7.0625-2.53125 1.79685-1.6927 2.68748-3.92187 2.6875-6.65625-.00002-1.86197-.44533-3.58072-1.34375-5.15625-.88544-1.5755-2.15887-2.86977-3.8125-3.9375-1.06772-.69009-2.39845-1.21873-4-1.53125-1.60157-.3255-3.60417-.46873-6-.46875zm-43 .03125c-.78125.00002-1.39584.24221-1.8125.75-.40365.49481-.59375 1.21877-.59375 2.15625v14.5625c0 .9375.1901 1.67969.59375 2.1875.41666.49479 1.03125.75 1.8125.75.79427 0 1.3776-.26823 1.78125-.75.40364-.49479.59374-1.22396.59375-2.1875v-14.5625c-.00001-.96352-.19011-1.67446-.59375-2.15625-.40365-.49477-.98698-.74998-1.78125-.75zm99.875005.125c-.89844.00002-1.58073.16669-2.0625.53125-.48177.3646-.75.88544-.75 1.5625 0 .65106.23177 1.16148.6875 1.5.45573.32554 1.1276.46877 2 .46875h6.21875c.74218.00002 1.29165.15106 1.65625.4375.37759.27345.56249.69012.5625 1.25v.875c-4.25782.02606-7.41146.68751-9.46875 1.9375-2.05729 1.25001-3.09375 3.15365-3.09375 5.71875 0 1.8099.66667 3.26823 1.96875 4.375 1.30208 1.10677 3.00781 1.65625 5.15625 1.65625 1.28905 0 2.44791-.20312 3.4375-.59375 1.00259-.40365 1.83592-1 2.5-1.78125-.00001.76823.16665 1.34635.53125 1.75.36457.40365.8854.625 1.5625.625.76821 0 1.33592-.20833 1.6875-.625.35154-.41667.53123-1.07031.53125-1.96875v-11.625c-.00002-2.14842-.51043-3.69269-1.5-4.65625-.9896-.96352-2.59897-1.43748-4.8125-1.4375zm-29.531251 3.65625c1.15884.00002 2.14322.34116 2.9375 1.03125.794261.6771 1.268211 1.59897 1.437501 2.71875h-8.906251c.18228-1.18488.67447-2.09894 1.46875-2.75.80728-.65103 1.81249-.99998 3.0625-1zm70.312501.375c1.3802.00002 2.5104.54429 3.34375 1.625.83332 1.08074 1.24998 2.53387 1.25 4.34375-.00002 1.8099-.41668 3.2448-1.25 4.3125-.83335 1.06771-1.96355 1.59375-3.34375 1.59375-1.39324 0-2.51043-.53125-3.34375-1.625-.83334-1.09374-1.25001-2.5703-1.25-4.40625-.00001-1.74478.43489-3.15103 1.28125-4.21875.84635-1.08071 1.9453-1.62498 3.3125-1.625zm-96.187505.28125h.53125c2.47395.00002 4.40624.59116 5.8125 1.75 1.40624 1.15887 2.12498 2.75001 2.125 4.78125-.00002 1.52345-.48699 2.72657-1.4375 3.625-.93751.88542-2.23439 1.3125-3.875 1.3125h-3.15625zm63.718755 5.875v2.4375c-.00001 1.19792-.3698 2.12501-1.125 2.75-.75522.625-1.86199.9375-3.28125.9375-1.02865 0-1.83334-.22135-2.40625-.625-.5599-.41666-.81251-.97656-.8125-1.71875-.00001-1.18489.63541-2.11197 1.9375-2.75 1.3151-.65103 3.21353-.99218 5.6875-1.03125z" fill="#050000"/><text fill="#f79910" font-family="BenguiatGot Bk BT" font-size="29.97791481" transform="scale(.7494478 1.3343157)" x="23.573265" xml:space="preserve" y="12.348852"><tspan x="23.573265" y="12.348852">~</tspan></text><text fill="#f79910" font-family="DejaVu Sans Mono" font-size="18" x="187.83435" xml:space="preserve" y="36.232796"><tspan x="187.83435" y="36.232796">labs</tspan></text></svg>